<mxfile modified="2020-01-09T13:38:32.273Z" host="www.draw.io" agent="Mozilla/5.0 (Windows NT 10.0; Win64; x64) AppleWebKit/537.36 (KHTML, like Gecko) Chrome/79.0.3945.88 Safari/537.36" etag="JRsN-Sfj3sQ8FtxmbuPE" version="12.5.1" type="github">
  <diagram name="Page-1" id="97a40813-6b03-0c74-37c1-0168de264b11">
    <mxGraphModel dx="401" dy="329" grid="1" gridSize="8" guides="1" tooltips="1" connect="1" arrows="1" fold="1" page="1" pageScale="1" pageWidth="700" pageHeight="400" background="#ffffff" math="0" shadow="0">
      <root>
        <mxCell id="0"/>
        <mxCell id="1" parent="0"/>
        <mxCell id="0TSWJhDB3ERVW5bUqQgN-13" style="edgeStyle=none;orthogonalLoop=1;jettySize=auto;html=1;endArrow=none;fontSize=18;fontColor=#808080;strokeWidth=2;strokeColor=#B3B3B3;" parent="1" source="0TSWJhDB3ERVW5bUqQgN-1" target="0TSWJhDB3ERVW5bUqQgN-2" edge="1">
          <mxGeometry relative="1" as="geometry"/>
        </mxCell>
        <mxCell id="0TSWJhDB3ERVW5bUqQgN-22" style="edgeStyle=none;orthogonalLoop=1;jettySize=auto;html=1;endArrow=none;strokeColor=#B3B3B3;strokeWidth=2;fontSize=18;fontColor=#808080;" parent="1" source="0TSWJhDB3ERVW5bUqQgN-1" target="0TSWJhDB3ERVW5bUqQgN-16" edge="1">
          <mxGeometry relative="1" as="geometry"/>
        </mxCell>
        <UserObject label="&lt;a href=&quot;../workflows/index.md&quot;&gt;&lt;font color=&quot;#004c99&quot;&gt;Lively4 Workflows&lt;/font&gt;&lt;/a&gt;" id="0TSWJhDB3ERVW5bUqQgN-1">
          <mxCell style="text;html=1;fontSize=28;fontColor=#004C99;fontStyle=1;verticalAlign=middle;" parent="1" vertex="1">
            <mxGeometry x="170" y="189.5" width="250" height="30" as="geometry"/>
          </mxCell>
        </UserObject>
        <mxCell id="DPRi2njI6-Kurb0PHNIT-4" style="edgeStyle=none;orthogonalLoop=1;jettySize=auto;html=1;endArrow=none;strokeColor=#B3B3B3;strokeWidth=1;fontSize=20;fontColor=#F0C286;" parent="1" source="0TSWJhDB3ERVW5bUqQgN-2" target="DPRi2njI6-Kurb0PHNIT-1" edge="1">
          <mxGeometry relative="1" as="geometry"/>
        </mxCell>
        <mxCell id="0TSWJhDB3ERVW5bUqQgN-2" value="&lt;b&gt;&lt;a href=&quot;../workflows/exploring.md&quot;&gt;&lt;font color=&quot;#004c99&quot;&gt;Exploring&lt;/font&gt;&lt;/a&gt;&lt;/b&gt;" style="text;html=1;strokeColor=none;fillColor=none;align=center;verticalAlign=middle;whiteSpace=wrap;rounded=0;fontSize=18;" parent="1" vertex="1">
          <mxGeometry x="420" y="282.5" width="110" height="19" as="geometry"/>
        </mxCell>
        <mxCell id="DPRi2njI6-Kurb0PHNIT-1" value="&lt;a href=&quot;../workflows/objects.md&quot;&gt;&lt;font color=&quot;#004c99&quot;&gt;Objects&lt;/font&gt;&lt;/a&gt;" style="text;html=1;strokeColor=none;fillColor=none;align=center;verticalAlign=middle;whiteSpace=wrap;rounded=0;fontSize=14;" parent="1" vertex="1">
          <mxGeometry x="572.5" y="283.5" width="55" height="19" as="geometry"/>
        </mxCell>
        <mxCell id="0TSWJhDB3ERVW5bUqQgN-36" value="&lt;a href=&quot;../tools/halo.md&quot;&gt;&lt;font color=&quot;#004c99&quot;&gt;Halo&lt;/font&gt;&lt;/a&gt;" style="text;html=1;strokeColor=none;fillColor=none;align=center;verticalAlign=middle;whiteSpace=wrap;rounded=0;fontSize=14;fontColor=#004C99;fontStyle=1" parent="1" vertex="1">
          <mxGeometry x="395" y="363" width="60" height="19" as="geometry"/>
        </mxCell>
        <mxCell id="0TSWJhDB3ERVW5bUqQgN-44" style="edgeStyle=none;orthogonalLoop=1;jettySize=auto;html=1;endArrow=none;strokeColor=#B3B3B3;strokeWidth=1;fontSize=14;fontColor=#004C99;" parent="1" source="0TSWJhDB3ERVW5bUqQgN-3" target="0TSWJhDB3ERVW5bUqQgN-43" edge="1">
          <mxGeometry relative="1" as="geometry"/>
        </mxCell>
        <mxCell id="0TSWJhDB3ERVW5bUqQgN-3" value="&lt;b&gt;&lt;a href=&quot;../workflows/drawing.md&quot;&gt;&lt;font color=&quot;#004c99&quot;&gt;Drawing&lt;/font&gt;&lt;/a&gt;&lt;/b&gt;" style="text;html=1;strokeColor=none;fillColor=none;align=center;verticalAlign=middle;whiteSpace=wrap;rounded=0;fontSize=18;" parent="1" vertex="1">
          <mxGeometry x="110" y="276.5" width="80" height="19" as="geometry"/>
        </mxCell>
        <mxCell id="0TSWJhDB3ERVW5bUqQgN-21" style="edgeStyle=none;orthogonalLoop=1;jettySize=auto;html=1;endArrow=none;strokeColor=#B3B3B3;strokeWidth=1;fontSize=18;fontColor=#808080;" parent="1" source="0TSWJhDB3ERVW5bUqQgN-4" target="0TSWJhDB3ERVW5bUqQgN-18" edge="1">
          <mxGeometry relative="1" as="geometry"/>
        </mxCell>
        <mxCell id="0TSWJhDB3ERVW5bUqQgN-4" value="&lt;b&gt;&lt;a href=&quot;../workflows/writing.md&quot;&gt;&lt;font color=&quot;#004c99&quot;&gt;Writing&lt;/font&gt;&lt;/a&gt;&lt;/b&gt;" style="text;html=1;strokeColor=none;fillColor=none;align=center;verticalAlign=middle;whiteSpace=wrap;rounded=0;fontSize=18;" parent="1" vertex="1">
          <mxGeometry x="90" y="110" width="140" height="19" as="geometry"/>
        </mxCell>
        <mxCell id="0TSWJhDB3ERVW5bUqQgN-12" value="" style="endArrow=none;html=1;fontSize=18;fontColor=#808080;strokeColor=#B3B3B3;strokeWidth=2;" parent="1" source="0TSWJhDB3ERVW5bUqQgN-4" target="0TSWJhDB3ERVW5bUqQgN-1" edge="1">
          <mxGeometry width="50" height="50" relative="1" as="geometry">
            <mxPoint x="233.18181818181824" y="319.5" as="sourcePoint"/>
            <mxPoint x="298.6363636363635" y="239.5" as="targetPoint"/>
          </mxGeometry>
        </mxCell>
        <mxCell id="0TSWJhDB3ERVW5bUqQgN-14" value="#external" style="text;html=1;strokeColor=none;fillColor=none;align=center;verticalAlign=middle;whiteSpace=wrap;rounded=0;fontSize=10;fontColor=#FF8000;" parent="1" vertex="1">
          <mxGeometry x="25" y="296.5" width="50" height="10" as="geometry"/>
        </mxCell>
        <mxCell id="0TSWJhDB3ERVW5bUqQgN-24" value="" style="edgeStyle=none;orthogonalLoop=1;jettySize=auto;html=1;endArrow=none;strokeColor=#B3B3B3;strokeWidth=1;fontSize=18;fontColor=#808080;" parent="1" source="0TSWJhDB3ERVW5bUqQgN-15" target="0TSWJhDB3ERVW5bUqQgN-3" edge="1">
          <mxGeometry relative="1" as="geometry">
            <mxPoint x="-11" y="286.5" as="targetPoint"/>
          </mxGeometry>
        </mxCell>
        <mxCell id="0TSWJhDB3ERVW5bUqQgN-15" value="&lt;a href=&quot;../workflows/drawio.md&quot;&gt;&lt;font color=&quot;#004c99&quot;&gt;draw.io&lt;/font&gt;&lt;/a&gt;" style="text;html=1;strokeColor=none;fillColor=none;align=center;verticalAlign=middle;whiteSpace=wrap;rounded=0;fontSize=14;" parent="1" vertex="1">
          <mxGeometry x="10" y="279" width="60" height="14" as="geometry"/>
        </mxCell>
        <mxCell id="0TSWJhDB3ERVW5bUqQgN-31" style="edgeStyle=none;orthogonalLoop=1;jettySize=auto;html=1;endArrow=none;strokeColor=#B3B3B3;strokeWidth=1;fontSize=18;fontColor=#808080;" parent="1" source="0TSWJhDB3ERVW5bUqQgN-16" target="0TSWJhDB3ERVW5bUqQgN-27" edge="1">
          <mxGeometry relative="1" as="geometry"/>
        </mxCell>
        <UserObject label="&lt;b&gt;&lt;a href=&quot;../workflows/developing.md&quot;&gt;&lt;font color=&quot;#004c99&quot;&gt;Developing&lt;/font&gt;&lt;/a&gt;&lt;/b&gt;" id="0TSWJhDB3ERVW5bUqQgN-16">
          <mxCell style="text;html=1;strokeColor=none;fillColor=none;align=center;verticalAlign=middle;whiteSpace=wrap;rounded=0;fontSize=18;fontColor=#000000;" parent="1" vertex="1">
            <mxGeometry x="430" y="94.5" width="90" height="19" as="geometry"/>
          </mxCell>
        </UserObject>
        <mxCell id="FIq0eb9bhNBDXf4jX-hK-5" style="edgeStyle=none;orthogonalLoop=1;jettySize=auto;html=1;endArrow=none;strokeColor=#B3B3B3;strokeWidth=1;fontSize=18;fontColor=#808080;exitX=0;exitY=0.5;exitDx=0;exitDy=0;entryX=0.5;entryY=0;entryDx=0;entryDy=0;" parent="1" source="0TSWJhDB3ERVW5bUqQgN-17" target="FIq0eb9bhNBDXf4jX-hK-3" edge="1">
          <mxGeometry relative="1" as="geometry"/>
        </mxCell>
        <mxCell id="FIq0eb9bhNBDXf4jX-hK-6" style="edgeStyle=none;orthogonalLoop=1;jettySize=auto;html=1;endArrow=none;strokeColor=#B3B3B3;strokeWidth=1;fontSize=18;fontColor=#808080;exitX=0;exitY=0.5;exitDx=0;exitDy=0;entryX=1;entryY=0.75;entryDx=0;entryDy=0;" parent="1" source="0TSWJhDB3ERVW5bUqQgN-17" target="FIq0eb9bhNBDXf4jX-hK-1" edge="1">
          <mxGeometry relative="1" as="geometry">
            <mxPoint x="110" y="43" as="targetPoint"/>
          </mxGeometry>
        </mxCell>
        <mxCell id="0TSWJhDB3ERVW5bUqQgN-17" value="&lt;a href=&quot;../workflows/markdown.md&quot;&gt;&lt;font color=&quot;#004c99&quot;&gt;Markdown&lt;/font&gt;&lt;/a&gt;" style="text;html=1;strokeColor=none;fillColor=none;align=center;verticalAlign=middle;whiteSpace=wrap;rounded=0;fontSize=14;" parent="1" vertex="1">
          <mxGeometry x="130" y="59.5" width="60" height="14" as="geometry"/>
        </mxCell>
        <mxCell id="0TSWJhDB3ERVW5bUqQgN-18" value="Latex" style="text;html=1;strokeColor=none;fillColor=none;align=center;verticalAlign=middle;whiteSpace=wrap;rounded=0;fontSize=14;fontColor=#B3B3B3;" parent="1" vertex="1">
          <mxGeometry x="50" y="151" width="80" height="14" as="geometry"/>
        </mxCell>
        <mxCell id="0TSWJhDB3ERVW5bUqQgN-19" value="" style="endArrow=none;html=1;fontSize=18;fontColor=#808080;strokeColor=#B3B3B3;strokeWidth=2;" parent="1" source="0TSWJhDB3ERVW5bUqQgN-3" target="0TSWJhDB3ERVW5bUqQgN-1" edge="1">
          <mxGeometry width="50" height="50" relative="1" as="geometry">
            <mxPoint x="214.9502487562188" y="300" as="sourcePoint"/>
            <mxPoint x="285.0995024875622" y="229.5" as="targetPoint"/>
          </mxGeometry>
        </mxCell>
        <mxCell id="0TSWJhDB3ERVW5bUqQgN-20" value="" style="endArrow=none;html=1;fontSize=18;fontColor=#808080;strokeColor=#B3B3B3;strokeWidth=1;" parent="1" source="0TSWJhDB3ERVW5bUqQgN-17" target="0TSWJhDB3ERVW5bUqQgN-4" edge="1">
          <mxGeometry width="50" height="50" relative="1" as="geometry">
            <mxPoint x="324.9502487562188" y="210.5" as="sourcePoint"/>
            <mxPoint x="395.0995024875622" y="140" as="targetPoint"/>
          </mxGeometry>
        </mxCell>
        <mxCell id="0TSWJhDB3ERVW5bUqQgN-25" value="&lt;font color=&quot;#a9c4eb&quot;&gt;drawboard&lt;/font&gt;" style="text;html=1;strokeColor=none;fillColor=none;align=center;verticalAlign=middle;whiteSpace=wrap;rounded=0;fontSize=14;fontColor=#004C99;fontStyle=0;strokeOpacity=80;fillOpacity=80;" parent="1" vertex="1">
          <mxGeometry x="110" y="341" width="80" height="14" as="geometry"/>
        </mxCell>
        <mxCell id="0TSWJhDB3ERVW5bUqQgN-27" value="&lt;a href=&quot;../workflows/web-components.md&quot;&gt;&lt;font color=&quot;#004c99&quot;&gt;Web-Components&lt;/font&gt;&lt;/a&gt;" style="text;html=1;strokeColor=none;fillColor=none;align=center;verticalAlign=middle;whiteSpace=wrap;rounded=0;fontSize=14;" parent="1" vertex="1">
          <mxGeometry x="575" y="89" width="90" height="30" as="geometry"/>
        </mxCell>
        <mxCell id="0TSWJhDB3ERVW5bUqQgN-28" value="" style="endArrow=none;html=1;fontSize=18;fontColor=#808080;strokeColor=#B3B3B3;strokeWidth=1;" parent="1" source="0TSWJhDB3ERVW5bUqQgN-29" target="0TSWJhDB3ERVW5bUqQgN-16" edge="1">
          <mxGeometry width="50" height="50" relative="1" as="geometry">
            <mxPoint x="440" y="70" as="sourcePoint"/>
            <mxPoint x="188.25" y="120" as="targetPoint"/>
          </mxGeometry>
        </mxCell>
        <mxCell id="FIq0eb9bhNBDXf4jX-hK-11" style="edgeStyle=none;orthogonalLoop=1;jettySize=auto;html=1;entryX=0.5;entryY=1;entryDx=0;entryDy=0;endArrow=none;strokeColor=#B3B3B3;strokeWidth=1;fontSize=18;fontColor=#808080;" parent="1" source="0TSWJhDB3ERVW5bUqQgN-29" target="FIq0eb9bhNBDXf4jX-hK-10" edge="1">
          <mxGeometry relative="1" as="geometry"/>
        </mxCell>
        <mxCell id="0TSWJhDB3ERVW5bUqQgN-29" value="&lt;a href=&quot;../workflows/scripts.md&quot;&gt;&lt;font color=&quot;#004c99&quot;&gt;Scripts&lt;/font&gt;&lt;/a&gt;" style="text;html=1;strokeColor=none;fillColor=none;align=center;verticalAlign=middle;whiteSpace=wrap;rounded=0;fontSize=14;" parent="1" vertex="1">
          <mxGeometry x="435" y="50" width="80" height="14" as="geometry"/>
        </mxCell>
        <mxCell id="0TSWJhDB3ERVW5bUqQgN-32" value="&lt;a href=&quot;../workflows/modules.md&quot;&gt;&lt;font color=&quot;#004c99&quot;&gt;Modules&lt;/font&gt;&lt;/a&gt;" style="text;html=1;strokeColor=none;fillColor=none;align=center;verticalAlign=middle;whiteSpace=wrap;rounded=0;fontSize=14;" parent="1" vertex="1">
          <mxGeometry x="530" y="158" width="90" height="30" as="geometry"/>
        </mxCell>
        <mxCell id="0TSWJhDB3ERVW5bUqQgN-33" style="edgeStyle=none;orthogonalLoop=1;jettySize=auto;html=1;endArrow=none;strokeColor=#B3B3B3;strokeWidth=1;fontSize=18;fontColor=#808080;" parent="1" source="0TSWJhDB3ERVW5bUqQgN-16" target="0TSWJhDB3ERVW5bUqQgN-32" edge="1">
          <mxGeometry relative="1" as="geometry">
            <mxPoint x="590.0000000000002" y="120" as="sourcePoint"/>
            <mxPoint x="619.9999999999998" y="120" as="targetPoint"/>
          </mxGeometry>
        </mxCell>
        <mxCell id="0TSWJhDB3ERVW5bUqQgN-38" value="&lt;a href=&quot;../tools/container.md&quot;&gt;&lt;font color=&quot;#004c99&quot;&gt;Inspector&lt;/font&gt;&lt;/a&gt;" style="text;html=1;strokeColor=none;fillColor=none;align=center;verticalAlign=middle;whiteSpace=wrap;rounded=0;fontSize=14;fontColor=#004C99;fontStyle=1;" parent="1" vertex="1">
          <mxGeometry x="585" y="338.5" width="60" height="19" as="geometry"/>
        </mxCell>
        <mxCell id="0TSWJhDB3ERVW5bUqQgN-40" value="&lt;a href=&quot;../tools/container.md&quot;&gt;&lt;font color=&quot;#004c99&quot;&gt;Container&lt;/font&gt;&lt;/a&gt;" style="text;html=1;strokeColor=none;fillColor=none;align=center;verticalAlign=middle;whiteSpace=wrap;rounded=0;fontSize=14;fontColor=#004C99;fontStyle=1;" parent="1" vertex="1">
          <mxGeometry x="250" y="31" width="90" height="19" as="geometry"/>
        </mxCell>
        <mxCell id="0TSWJhDB3ERVW5bUqQgN-41" value="&lt;font style=&quot;font-size: 10px&quot;&gt;&lt;a href=&quot;../tools/navbar.md&quot;&gt;Navbar&lt;/a&gt;&lt;/font&gt;&lt;font style=&quot;font-size: 10px ; font-weight: normal&quot;&gt;&lt;br&gt;&lt;/font&gt;" style="text;html=1;strokeColor=none;fillColor=none;align=center;verticalAlign=middle;whiteSpace=wrap;rounded=0;fontSize=14;fontColor=#004C99;" parent="1" vertex="1">
          <mxGeometry x="220" y="64" width="90" height="19" as="geometry"/>
        </mxCell>
        <mxCell id="0TSWJhDB3ERVW5bUqQgN-42" value="&lt;a href=&quot;../tools/codemirror.md&quot;&gt;&lt;font color=&quot;#004c99&quot;&gt;CodeMirror&lt;/font&gt;&lt;/a&gt;" style="text;html=1;strokeColor=none;fillColor=none;align=center;verticalAlign=middle;whiteSpace=wrap;rounded=0;fontSize=12;fontColor=#004C99;fontStyle=1;" parent="1" vertex="1">
          <mxGeometry x="330" y="70" width="90" height="19" as="geometry"/>
        </mxCell>
        <mxCell id="0TSWJhDB3ERVW5bUqQgN-43" value="SVG" style="text;html=1;strokeColor=none;fillColor=none;align=center;verticalAlign=middle;whiteSpace=wrap;rounded=0;fontSize=14;fontColor=#000000;" parent="1" vertex="1">
          <mxGeometry x="110" y="316.5" width="80" height="14" as="geometry"/>
        </mxCell>
        <mxCell id="0TSWJhDB3ERVW5bUqQgN-49" value="Programs" style="text;html=1;fontSize=20;fontColor=#F0C286;rounded=0;align=center;verticalAlign=middle;fontStyle=3;" parent="1" vertex="1">
          <mxGeometry x="410" y="151" width="90" height="30" as="geometry"/>
        </mxCell>
        <mxCell id="0TSWJhDB3ERVW5bUqQgN-52" value="Figures" style="text;html=1;fontSize=20;fontColor=#F0C286;rounded=0;fontStyle=3;align=center;verticalAlign=middle;" parent="1" vertex="1">
          <mxGeometry x="145" y="219.5" width="70" height="30" as="geometry"/>
        </mxCell>
        <mxCell id="0TSWJhDB3ERVW5bUqQgN-53" value="Text" style="text;html=1;fontSize=20;fontColor=#F0C286;rounded=0;fontStyle=3;align=center;verticalAlign=middle;" parent="1" vertex="1">
          <mxGeometry x="165" y="150" width="50" height="30" as="geometry"/>
        </mxCell>
        <mxCell id="0TSWJhDB3ERVW5bUqQgN-54" value="(UI) Objects" style="text;html=1;fontSize=20;fontColor=#F0C286;rounded=0;align=center;verticalAlign=middle;fontStyle=3;" parent="1" vertex="1">
          <mxGeometry x="410" y="219.5" width="90" height="30" as="geometry"/>
        </mxCell>
        <mxCell id="0TSWJhDB3ERVW5bUqQgN-57" style="edgeStyle=none;orthogonalLoop=1;jettySize=auto;html=1;endArrow=none;strokeColor=#B3B3B3;strokeWidth=1;fontSize=20;fontColor=#F0C286;" parent="1" source="0TSWJhDB3ERVW5bUqQgN-56" target="0TSWJhDB3ERVW5bUqQgN-2" edge="1">
          <mxGeometry relative="1" as="geometry"/>
        </mxCell>
        <mxCell id="0TSWJhDB3ERVW5bUqQgN-56" value="&lt;a href=&quot;../workflows/html-elements.md&quot;&gt;&lt;font color=&quot;#004c99&quot;&gt;HTML Elements&lt;/font&gt;&lt;/a&gt;" style="text;html=1;strokeColor=none;fillColor=none;align=center;verticalAlign=middle;whiteSpace=wrap;rounded=0;fontSize=14;" parent="1" vertex="1">
          <mxGeometry x="410" y="333" width="130" height="30" as="geometry"/>
        </mxCell>
        <mxCell id="DPRi2njI6-Kurb0PHNIT-8" style="edgeStyle=none;orthogonalLoop=1;jettySize=auto;html=1;endArrow=none;strokeColor=#B3B3B3;strokeWidth=1;fontSize=20;fontColor=#F0C286;" parent="1" source="0TSWJhDB3ERVW5bUqQgN-61" target="0TSWJhDB3ERVW5bUqQgN-2" edge="1">
          <mxGeometry relative="1" as="geometry"/>
        </mxCell>
        <mxCell id="0TSWJhDB3ERVW5bUqQgN-61" value="APIs" style="text;html=1;strokeColor=none;fillColor=none;align=center;verticalAlign=middle;whiteSpace=wrap;rounded=0;fontSize=14;" parent="1" vertex="1">
          <mxGeometry x="320" y="278" width="50" height="30" as="geometry"/>
        </mxCell>
        <mxCell id="0TSWJhDB3ERVW5bUqQgN-62" value="&lt;a href=&quot;../tools/sync.md&quot;&gt;&lt;font color=&quot;#004c99&quot;&gt;GitHub Sync&lt;/font&gt;&lt;/a&gt;" style="text;html=1;strokeColor=none;fillColor=none;align=center;verticalAlign=middle;whiteSpace=wrap;rounded=0;fontSize=12;fontColor=#004C99;fontStyle=1;" parent="1" vertex="1">
          <mxGeometry x="250" y="239.5" width="90" height="19" as="geometry"/>
        </mxCell>
        <mxCell id="0TSWJhDB3ERVW5bUqQgN-68" value="&lt;a href=&quot;../tools/object-editor.md&quot;&gt;&lt;font color=&quot;#004c99&quot;&gt;Object Editor&lt;/font&gt;&lt;/a&gt;" style="text;html=1;strokeColor=none;fillColor=none;align=center;verticalAlign=middle;whiteSpace=wrap;rounded=0;fontSize=14;fontColor=#004C99;fontStyle=0;strokeOpacity=80;fillOpacity=80;" parent="1" vertex="1">
          <mxGeometry x="572.5" y="251.5" width="110" height="14" as="geometry"/>
        </mxCell>
        <mxCell id="0TSWJhDB3ERVW5bUqQgN-69" value="&lt;a href=&quot;../tools/xray.md&quot;&gt;&lt;font color=&quot;#004c99&quot;&gt;XRay&lt;/font&gt;&lt;/a&gt;" style="text;html=1;strokeColor=none;fillColor=none;align=center;verticalAlign=middle;whiteSpace=wrap;rounded=0;fontSize=14;fontColor=#004C99;fontStyle=1;" parent="1" vertex="1">
          <mxGeometry x="460" y="372.5" width="60" height="19" as="geometry"/>
        </mxCell>
        <mxCell id="DPRi2njI6-Kurb0PHNIT-7" style="edgeStyle=none;orthogonalLoop=1;jettySize=auto;html=1;endArrow=none;strokeColor=#B3B3B3;strokeWidth=1;fontSize=20;fontColor=#F0C286;" parent="1" source="DPRi2njI6-Kurb0PHNIT-6" target="0TSWJhDB3ERVW5bUqQgN-2" edge="1">
          <mxGeometry relative="1" as="geometry"/>
        </mxCell>
        <mxCell id="DPRi2njI6-Kurb0PHNIT-6" value="&lt;a href=&quot;../workflows/data.md&quot;&gt;&lt;font color=&quot;#004c99&quot;&gt;Data&lt;/font&gt;&lt;/a&gt;" style="text;html=1;strokeColor=none;fillColor=none;align=center;verticalAlign=middle;whiteSpace=wrap;rounded=0;fontSize=14;" parent="1" vertex="1">
          <mxGeometry x="325" y="314" width="55" height="19" as="geometry"/>
        </mxCell>
        <mxCell id="FIq0eb9bhNBDXf4jX-hK-1" value="&lt;a href=&quot;../workflows/presentation.md&quot;&gt;&lt;font color=&quot;#004c99&quot;&gt;Presentation&lt;/font&gt;&lt;/a&gt;" style="text;html=1;strokeColor=none;fillColor=none;align=center;verticalAlign=middle;whiteSpace=wrap;rounded=0;fontSize=14;" parent="1" vertex="1">
          <mxGeometry x="11" y="52.5" width="80" height="14" as="geometry"/>
        </mxCell>
        <mxCell id="FIq0eb9bhNBDXf4jX-hK-3" value="&lt;a href=&quot;../workflows/paper.md&quot;&gt;&lt;font color=&quot;#004c99&quot;&gt;Paper&lt;/font&gt;&lt;/a&gt;" style="text;html=1;strokeColor=none;fillColor=none;align=center;verticalAlign=middle;whiteSpace=wrap;rounded=0;fontSize=14;direction=south;" parent="1" vertex="1">
          <mxGeometry x="40" y="73.5" width="51" height="24.5" as="geometry"/>
        </mxCell>
        <mxCell id="FIq0eb9bhNBDXf4jX-hK-10" value="&lt;a href=&quot;../workflows/visualizations.md&quot;&gt;&lt;font color=&quot;#004c99&quot;&gt;Visualizations&lt;/font&gt;&lt;/a&gt;" style="text;html=1;strokeColor=none;fillColor=none;align=center;verticalAlign=middle;whiteSpace=wrap;rounded=0;fontSize=14;" parent="1" vertex="1">
          <mxGeometry x="520" y="24" width="80" height="14" as="geometry"/>
        </mxCell>
        <mxCell id="58Ou2DtzdFMtdfNrC2jR-2" value="&lt;i&gt;&lt;font style=&quot;font-size: 10px&quot; color=&quot;#808080&quot;&gt;Overleaf&lt;/font&gt;&lt;/i&gt;" style="text;html=1;strokeColor=none;fillColor=none;align=center;verticalAlign=middle;whiteSpace=wrap;rounded=0;" parent="1" vertex="1">
          <mxGeometry x="45.5" y="119" width="40" height="20" as="geometry"/>
        </mxCell>
        <mxCell id="58Ou2DtzdFMtdfNrC2jR-4" style="edgeStyle=none;orthogonalLoop=1;jettySize=auto;html=1;endArrow=none;strokeColor=#B3B3B3;strokeWidth=1;fontSize=18;fontColor=#808080;" parent="1" source="0TSWJhDB3ERVW5bUqQgN-18" target="58Ou2DtzdFMtdfNrC2jR-2" edge="1">
          <mxGeometry relative="1" as="geometry">
            <mxPoint x="152.72727272727275" y="139" as="sourcePoint"/>
            <mxPoint x="112.72727272727275" y="161" as="targetPoint"/>
          </mxGeometry>
        </mxCell>
        <mxCell id="58Ou2DtzdFMtdfNrC2jR-5" style="edgeStyle=none;orthogonalLoop=1;jettySize=auto;html=1;endArrow=none;strokeColor=#B3B3B3;strokeWidth=1;fontSize=18;fontColor=#808080;" parent="1" source="FIq0eb9bhNBDXf4jX-hK-3" target="58Ou2DtzdFMtdfNrC2jR-2" edge="1">
          <mxGeometry relative="1" as="geometry">
            <mxPoint x="40" y="110" as="sourcePoint"/>
            <mxPoint x="20" y="110" as="targetPoint"/>
          </mxGeometry>
        </mxCell>
        <mxCell id="58Ou2DtzdFMtdfNrC2jR-6" style="edgeStyle=none;orthogonalLoop=1;jettySize=auto;html=1;endArrow=none;strokeColor=#B3B3B3;strokeWidth=1;fontSize=18;fontColor=#808080;entryX=0.25;entryY=0;entryDx=0;entryDy=0;" parent="1" source="FIq0eb9bhNBDXf4jX-hK-3" target="0TSWJhDB3ERVW5bUqQgN-15" edge="1">
          <mxGeometry relative="1" as="geometry">
            <mxPoint x="25" y="100" as="sourcePoint"/>
            <mxPoint x="25" y="165" as="targetPoint"/>
            <Array as="points">
              <mxPoint x="25" y="86"/>
            </Array>
          </mxGeometry>
        </mxCell>
        <mxCell id="58Ou2DtzdFMtdfNrC2jR-7" value="#external" style="text;html=1;strokeColor=none;fillColor=none;align=center;verticalAlign=middle;whiteSpace=wrap;rounded=0;fontSize=8;fontColor=#FF8000;" parent="1" vertex="1">
          <mxGeometry x="51" y="134" width="50" height="10" as="geometry"/>
        </mxCell>
      </root>
    </mxGraphModel>
  </diagram>
</mxfile>
